<svg width="1001" height="214" viewBox="0 0 1001 214" fill="none" xmlns="http://www.w3.org/2000/svg">
<path d="M90.5945 152.785L15.0991 152.788C6.79932 152.783 0.00168316 145.749 0 137.503C0.00673626 129.26 6.80485 122.231 15.1022 122.228H45.4003C53.6597 122.169 60.3963 115.155 60.3995 106.949V15.2757C60.4045 7.03374 67.1998 0.00520583 75.4954 0C83.7923 0.00347052 90.5895 7.03255 90.5945 15.2757V58.4825C90.5995 66.6105 97.7433 73.7532 105.69 73.7582C113.989 73.7547 120.786 66.7236 120.79 58.4793V15.2757C120.795 7.03254 127.592 0.00347051 135.889 0C144.186 0.00346876 150.984 7.03204 150.991 15.2757V198.625C150.986 206.87 144.187 213.9 135.889 213.904C127.591 213.9 120.793 206.869 120.79 198.625V183.346C120.79 166.477 107.259 152.785 90.5945 152.785Z" fill="black"/>
<path d="M87.1443 208.61C99.0463 208.61 108.695 198.846 108.695 186.803C108.695 174.759 99.0463 164.996 87.1443 164.996C75.2423 164.996 65.5939 174.759 65.5939 186.803C65.5939 198.846 75.2423 208.61 87.1443 208.61Z" fill="black"/>
<path fill-rule="evenodd" clip-rule="evenodd" d="M281.699 96.5335C276.464 89.8899 269.468 86.5681 260.711 86.5681C255.577 86.5681 251.048 87.8264 247.122 90.3429C243.196 92.8594 240.176 96.2819 238.062 100.61V48.0654L230.211 50.0283C222.057 51.9409 216.622 53.5514 213.904 54.86V58.0308L214.055 160.705C222.812 164.026 232.073 165.687 241.837 165.687C256.534 165.687 268.21 161.611 276.867 153.457C285.423 145.505 289.701 134.986 289.701 121.9C289.701 111.733 287.034 103.278 281.699 96.5335ZM259.654 140.321C256.03 144.146 251.048 146.059 244.706 146.059C242.793 146.059 240.579 145.807 238.062 145.304V125.826L238.213 126.128C238.213 120.491 239.673 115.76 242.592 111.935C245.411 108.21 248.833 106.348 252.859 106.348C256.584 106.348 259.553 108.009 261.768 111.331C263.982 114.652 265.09 118.981 265.09 124.316C265.09 131.06 263.278 136.395 259.654 140.321Z" fill="black"/>
<path d="M349.895 116.313C354.122 105.241 356.085 95.3256 355.783 86.5681C349.442 86.5681 343.603 88.229 338.268 91.5508C333.034 94.7719 329.159 99.4527 326.642 105.593C325.535 99.2513 323.874 93.0104 321.659 86.8701C321.357 86.9707 319.596 87.3734 316.375 88.078C313.657 88.682 311.694 89.1349 310.486 89.4369C306.963 90.3429 303.742 91.3998 300.823 92.6077C302.534 102.372 303.389 111.582 303.389 120.239V138.358C303.389 152.148 303.591 160.705 303.993 164.026C311.342 164.731 319.495 164.479 328.454 163.271C327.85 158.138 327.548 149.833 327.548 138.358C327.548 128.695 329.662 121.799 333.89 117.672C338.117 113.646 343.452 113.193 349.895 116.313Z" fill="black"/>
<path fill-rule="evenodd" clip-rule="evenodd" d="M402.582 146.511C407.112 146.511 411.44 145.857 415.567 144.549C419.795 143.139 423.067 141.428 425.382 139.415C425.885 143.139 425.382 148.776 423.872 156.326C421.557 158.742 417.732 160.906 412.397 162.819C407.364 164.832 401.827 165.838 395.788 165.838C384.715 165.838 375.706 162.366 368.76 155.42C361.815 148.575 358.342 139.264 358.342 127.487C358.342 115.609 362.217 105.794 369.968 98.0434C377.618 90.3932 387.131 86.5681 398.505 86.5681C407.666 86.5681 414.762 89.2356 419.795 94.5706C424.828 99.805 427.345 106.902 427.345 115.86C427.345 121.497 426.489 126.027 424.778 129.45L381.142 130.053C382.853 141.025 390 146.511 402.582 146.511ZM395.486 104.385C391.963 104.385 388.892 105.794 386.275 108.613C383.759 111.431 382.098 115.156 381.292 119.786L404.243 118.88C404.444 116.666 404.545 115.105 404.545 114.199C404.545 107.657 401.525 104.385 395.486 104.385Z" fill="black"/>
<path fill-rule="evenodd" clip-rule="evenodd" d="M485.459 165.536C493.209 165.033 499.954 163.372 505.691 160.554C503.275 154.615 502.068 145.606 502.068 133.526V117.823C502.068 96.9865 491.901 86.5681 471.567 86.5681C466.635 86.5681 462.105 87.0714 457.978 88.078C450.731 89.7892 444.59 92.5071 439.557 96.2315C439.658 102.271 440.413 107.657 441.822 112.388C448.566 107.958 455.965 105.744 464.018 105.744C473.782 105.744 478.664 110.475 478.664 119.937V120.239C475.443 120.038 472.977 119.937 471.265 119.937C459.79 119.937 450.731 122.252 444.087 126.883C437.544 131.513 434.273 137.804 434.273 145.757C434.273 151.796 436.185 156.678 440.01 160.403C443.835 164.026 448.818 165.838 454.958 165.838C460.092 165.838 464.823 164.53 469.151 161.913C473.581 159.195 477.003 155.47 479.419 150.739C480.727 156.678 482.741 161.611 485.459 165.536ZM472.473 143.341C469.957 146.059 466.987 147.417 463.565 147.417C461.35 147.417 459.488 146.813 457.978 145.606C456.468 144.297 455.713 142.636 455.713 140.623C455.713 134.382 461.35 131.261 472.624 131.261C475.04 131.261 476.802 131.312 477.909 131.412C476.902 136.546 475.09 140.522 472.473 143.341Z" fill="black"/>
<path d="M593.855 88.682L570.753 120.692L599.592 162.366C589.929 163.976 580.517 164.731 571.357 164.63L551.728 130.506L544.481 132.016V138.358C544.481 149.833 544.783 158.138 545.387 163.271C536.528 164.479 528.375 164.731 520.926 164.026C520.523 160.705 520.322 152.148 520.322 138.358V54.86C523.141 53.5514 528.627 51.9409 536.78 50.0283C538.391 49.6257 540.958 48.9714 544.481 48.0654V115.709L552.483 113.897L569.243 87.776C577.195 88.38 585.399 88.682 593.855 88.682Z" fill="black"/>
<path fill-rule="evenodd" clip-rule="evenodd" d="M659.839 165.536C667.59 165.033 674.334 163.372 680.072 160.554C677.656 154.615 676.448 145.606 676.448 133.526V48.0654C676.146 48.1661 675.492 48.3674 674.485 48.6694C673.579 48.8707 672.623 49.1224 671.616 49.4243L668.596 50.0283C660.443 51.9409 655.007 53.5514 652.289 54.86V86.7191C651.484 86.6184 650.276 86.5681 648.665 86.5681C634.07 86.5681 622.443 90.5945 613.787 98.6474C605.13 106.801 600.801 117.37 600.801 130.355C600.801 140.623 603.469 149.129 608.804 155.873C614.038 162.517 621.084 165.838 629.943 165.838C635.479 165.838 640.311 164.53 644.438 161.913C648.565 159.295 651.685 155.672 653.799 151.041C655.108 156.678 657.121 161.51 659.839 165.536ZM648.062 140.321C645.243 144.045 641.77 145.908 637.643 145.908C633.919 145.908 630.949 144.247 628.735 140.925C626.52 137.603 625.413 133.275 625.413 127.94C625.413 120.994 627.225 115.508 630.849 111.482C634.472 107.455 639.455 105.442 645.797 105.442C647.609 105.442 649.773 105.694 652.289 106.197V126.128C652.289 131.865 650.88 136.596 648.062 140.321Z" fill="black"/>
<path fill-rule="evenodd" clip-rule="evenodd" d="M762.447 160.554C756.709 163.372 749.965 165.033 742.214 165.536C739.496 161.611 737.483 156.678 736.174 150.739C733.758 155.47 730.336 159.195 725.907 161.913C721.578 164.53 716.847 165.838 711.714 165.838C705.573 165.838 700.591 164.026 696.766 160.403C692.94 156.678 691.028 151.796 691.028 145.757C691.028 137.804 694.299 131.513 700.842 126.883C707.486 122.252 716.545 119.937 728.021 119.937C729.732 119.937 732.198 120.038 735.419 120.239V119.937C735.419 110.475 730.537 105.744 720.773 105.744C712.72 105.744 705.322 107.958 698.577 112.388C697.168 107.657 696.413 102.271 696.313 96.2315C701.346 92.5071 707.486 89.7892 714.733 88.078C718.861 87.0714 723.39 86.5681 728.323 86.5681C748.656 86.5681 758.823 96.9865 758.823 117.823V133.526C758.823 145.606 760.031 154.615 762.447 160.554ZM720.32 147.417C723.743 147.417 726.712 146.059 729.229 143.341C731.846 140.522 733.658 136.546 734.664 131.412C733.557 131.312 731.795 131.261 729.38 131.261C718.106 131.261 712.469 134.382 712.469 140.623C712.469 142.636 713.224 144.297 714.733 145.606C716.243 146.813 718.106 147.417 720.32 147.417Z" fill="black"/>
<path d="M852.573 162.668C851.768 159.95 851.365 151.846 851.365 138.358V115.407C851.365 106.247 849.201 99.1507 844.872 94.1177C840.645 89.0846 834.705 86.5681 827.055 86.5681C821.116 86.5681 815.731 88.1283 810.899 91.2488C806.168 94.3693 802.746 98.7984 800.632 104.536C799.525 98.1944 797.914 92.3058 795.8 86.8701C795.498 86.9707 793.737 87.3734 790.516 88.078C787.093 88.8833 785.181 89.3363 784.778 89.4369C781.355 90.2422 778.084 91.2992 774.963 92.6077C776.675 102.372 777.53 111.582 777.53 120.239V138.358C777.53 152.148 777.732 160.705 778.134 164.026C785.483 164.731 793.636 164.479 802.595 163.271C801.991 158.138 801.689 149.833 801.689 138.358V127.94C801.689 121.9 803.249 117.018 806.37 113.293C809.389 109.569 813.114 107.707 817.543 107.707C820.563 107.707 822.928 108.713 824.639 110.727C826.351 112.74 827.206 115.558 827.206 119.182V138.358C827.206 153.356 827.408 162.114 827.81 164.63C835.964 164.832 844.218 164.177 852.573 162.668Z" fill="black"/>
<path d="M899.689 165.838C888.918 165.838 880.161 162.315 873.417 155.269C866.672 148.424 863.3 139.264 863.3 127.789C863.3 115.508 867.276 105.543 875.229 97.8924C883.08 90.3429 892.945 86.5681 904.823 86.5681C913.48 86.5681 920.576 88.229 926.112 91.5508C926.314 98.3957 924.854 105.694 921.734 113.444C917.204 108.713 911.718 106.348 905.276 106.348C899.941 106.348 895.663 108.16 892.441 111.784C889.22 115.307 887.61 119.937 887.61 125.675C887.61 131.714 889.371 136.445 892.894 139.868C896.518 143.19 901.249 144.851 907.088 144.851C910.711 144.851 914.335 144.196 917.959 142.888C921.683 141.579 924.502 140.069 926.414 138.358C926.918 142.686 926.364 148.978 924.754 157.232C918.613 162.97 910.258 165.838 899.689 165.838Z" fill="black"/>
<path fill-rule="evenodd" clip-rule="evenodd" d="M988.908 144.549C984.781 145.857 980.453 146.511 975.923 146.511C963.34 146.511 956.193 141.025 954.482 130.053L998.119 129.45C999.83 126.027 1000.69 121.497 1000.69 115.86C1000.69 106.902 998.169 99.805 993.136 94.5706C988.103 89.2356 981.006 86.5681 971.846 86.5681C960.471 86.5681 950.959 90.3932 943.309 98.0434C935.558 105.794 931.683 115.609 931.683 127.487C931.683 139.264 935.155 148.575 942.101 155.42C949.047 162.366 958.056 165.838 969.128 165.838C975.168 165.838 980.704 164.832 985.737 162.819C991.072 160.906 994.897 158.742 997.213 156.326C998.723 148.776 999.226 143.139 998.723 139.415C996.407 141.428 993.136 143.139 988.908 144.549ZM959.616 108.613C962.233 105.794 965.303 104.385 968.826 104.385C974.866 104.385 977.886 107.657 977.886 114.199C977.886 115.105 977.785 116.666 977.584 118.88L954.633 119.786C955.438 115.156 957.099 111.431 959.616 108.613Z" fill="black"/>
</svg>
