<svg xmlns="http://www.w3.org/2000/svg" width="182.667" height="26" viewBox="0 0 182.667 26">
  <g id="logo-blue" transform="translate(-0.22 -0.06)">
    <g id="Wordmark" transform="translate(34.488 0.87)">
      <path id="Path_12555" data-name="Path 12555" d="M62,14.609a6.665,6.665,0,0,1,.541-2.728A6.487,6.487,0,0,1,64,9.786,6.614,6.614,0,0,1,66.19,8.443a7.864,7.864,0,0,1,5.372,0A6.614,6.614,0,0,1,73.75,9.786a6.361,6.361,0,0,1,1.461,2.095,6.665,6.665,0,0,1,.541,2.728,6.639,6.639,0,0,1-.541,2.728,6.276,6.276,0,0,1-1.461,2.095,6.344,6.344,0,0,1-2.188,1.343,7.864,7.864,0,0,1-5.372,0,6.276,6.276,0,0,1-3.649-3.438A6.639,6.639,0,0,1,62,14.609Zm3.159,0a4.139,4.139,0,0,0,.253,1.428,3.717,3.717,0,0,0,6.149,1.25,3.548,3.548,0,0,0,.735-1.208,4.139,4.139,0,0,0,.253-1.428,4.054,4.054,0,0,0-.253-1.419,3.582,3.582,0,0,0-.735-1.216,3.827,3.827,0,0,0-1.174-.845,4.021,4.021,0,0,0-3.109,0,3.826,3.826,0,0,0-1.174.845,3.725,3.725,0,0,0-.726,1.174,4.054,4.054,0,0,0-.262,1.419Z" transform="translate(-40.832 -2.098)" fill="#32345c"/>
      <path id="Path_12556" data-name="Path 12556" d="M104.37,2.912a1.833,1.833,0,0,1,.532-1.326,1.951,1.951,0,0,1,1.436-.566,2.086,2.086,0,0,1,1.461.532,1.774,1.774,0,0,1,.6,1.36,1.765,1.765,0,0,1-.6,1.36,2.1,2.1,0,0,1-1.461.541,1.985,1.985,0,0,1-1.436-.566,1.858,1.858,0,0,1-.532-1.335Zm.845,4.3h2.407a.372.372,0,0,1,.38.372v11.9a.38.38,0,0,1-.38.372h-2.407a.38.38,0,0,1-.38-.372V7.583a.372.372,0,0,1,.363-.372Z" transform="translate(-47.412 -1.019)" fill="#32345c"/>
      <path id="Path_12557" data-name="Path 12557" d="M139.627,8.291v11.53a10.645,10.645,0,0,1-.422,3.092,5.972,5.972,0,0,1-1.309,2.348,5.845,5.845,0,0,1-2.222,1.487,8.844,8.844,0,0,1-3.193.524,12.028,12.028,0,0,1-3.379-.448,7.526,7.526,0,0,1-2.923-1.63l1.9-2.585a7.6,7.6,0,0,0,1.977,1.343,5.5,5.5,0,0,0,2.365.473,5.068,5.068,0,0,0,1.909-.313,3.015,3.015,0,0,0,1.242-.845,3.438,3.438,0,0,0,.659-1.326,6.918,6.918,0,0,0,.194-1.732v-.963h-.051a4.224,4.224,0,0,1-1.782,1.419,6.18,6.18,0,0,1-8.185-3.522,7.2,7.2,0,0,1-.448-2.534,7.974,7.974,0,0,1,.422-2.61,5.98,5.98,0,0,1,1.3-2.1,5.685,5.685,0,0,1,1.96-1.411,6.276,6.276,0,0,1,2.619-.515,6.1,6.1,0,0,1,2.534.524,4.131,4.131,0,0,1,1.841,1.689h.051V8.291Zm-6.758,2.534a4.038,4.038,0,0,0-1.529.279,3.489,3.489,0,0,0-1.166.76,3.379,3.379,0,0,0-.769,1.191,4.08,4.08,0,0,0-.279,1.537,3.607,3.607,0,0,0,.279,1.419,3.654,3.654,0,0,0,3.438,2.247,4.037,4.037,0,0,0,1.571-.3,3.514,3.514,0,0,0,1.183-.777,3.193,3.193,0,0,0,.752-1.174,4.02,4.02,0,0,0,.262-1.47,3.489,3.489,0,0,0-3.742-3.717Z" transform="translate(-50.764 -2.098)" fill="#32345c"/>
      <path id="Path_12558" data-name="Path 12558" d="M151.683,11.529a.38.38,0,0,1-.532,0,2.847,2.847,0,0,0-2.238-1,2.593,2.593,0,0,0-1.233.313,1.073,1.073,0,0,0-.608,1.031.845.845,0,0,0,.5.845,5.364,5.364,0,0,0,1.267.448l1.647.389a6.513,6.513,0,0,1,1.689.6,3.658,3.658,0,0,1,1.259,1.123,3.3,3.3,0,0,1,.507,1.951,3.565,3.565,0,0,1-.49,1.909,3.733,3.733,0,0,1-1.267,1.25,5.322,5.322,0,0,1-1.749.684,9.022,9.022,0,0,1-1.951.211,8.447,8.447,0,0,1-2.711-.422,5.068,5.068,0,0,1-1.951-1.242.38.38,0,0,1,0-.541l1.563-1.461a.372.372,0,0,1,.524,0,5.509,5.509,0,0,0,1.056.845,3.168,3.168,0,0,0,1.689.431,3.5,3.5,0,0,0,.71-.076,2.39,2.39,0,0,0,.684-.262,1.689,1.689,0,0,0,.515-.465,1.048,1.048,0,0,0,.194-.642,1.073,1.073,0,0,0-.5-.98,4.224,4.224,0,0,0-1.267-.507c-.507-.135-1.056-.253-1.639-.372a6.209,6.209,0,0,1-1.689-.558,3.379,3.379,0,0,1-1.267-1.064,3.126,3.126,0,0,1-.5-1.892,3.624,3.624,0,0,1,1.58-3.109,4.882,4.882,0,0,1,1.63-.743,7.425,7.425,0,0,1,4.376.2,4.046,4.046,0,0,1,1.765,1.183.372.372,0,0,1,0,.524Z" transform="translate(-53.52 -2.101)" fill="#32345c"/>
      <path id="Path_12559" data-name="Path 12559" d="M166.251,11.826a.372.372,0,0,1-.515,0,4.6,4.6,0,0,0-.9-.667,2.534,2.534,0,0,0-1.242-.346,3.675,3.675,0,0,0-1.554.313,3.827,3.827,0,0,0-1.174.845,3.725,3.725,0,0,0-.735,1.216,4.055,4.055,0,0,0-.253,1.419,4.139,4.139,0,0,0,.253,1.428A3.59,3.59,0,0,0,163.59,18.4a3.092,3.092,0,0,0,1.368-.3,2.931,2.931,0,0,0,.845-.574.372.372,0,0,1,.549,0l1.571,1.689a.372.372,0,0,1,0,.532,4.594,4.594,0,0,1-.845.558,6.756,6.756,0,0,1-1.25.549,7.028,7.028,0,0,1-1.208.3,6.825,6.825,0,0,1-1.005.093,7.678,7.678,0,0,1-2.686-.473,6.276,6.276,0,0,1-3.649-3.438,6.639,6.639,0,0,1-.541-2.728,6.665,6.665,0,0,1,.541-2.728,6.487,6.487,0,0,1,1.461-2.095,6.614,6.614,0,0,1,2.188-1.343A7.678,7.678,0,0,1,163.624,8a6.757,6.757,0,0,1,2.441.465,5.474,5.474,0,0,1,1.875,1.157.38.38,0,0,1,0,.541Z" transform="translate(-55.544 -2.103)" fill="#32345c"/>
      <path id="Path_12560" data-name="Path 12560" d="M170.23,14.609a6.665,6.665,0,0,1,.541-2.728,6.36,6.36,0,0,1,1.461-2.095,6.53,6.53,0,0,1,2.188-1.343,7.864,7.864,0,0,1,5.372,0,6.276,6.276,0,0,1,3.649,3.438,6.808,6.808,0,0,1,.541,2.728,6.757,6.757,0,0,1-.541,2.728,6.529,6.529,0,0,1-1.461,2.095,6.343,6.343,0,0,1-2.188,1.343,7.864,7.864,0,0,1-5.372,0,6.276,6.276,0,0,1-3.649-3.438,6.64,6.64,0,0,1-.541-2.728Zm3.159,0a4.14,4.14,0,0,0,.253,1.428,3.379,3.379,0,0,0,.735,1.208,3.607,3.607,0,0,0,1.174.845,4.021,4.021,0,0,0,3.108,0,3.59,3.59,0,0,0,1.909-2.053,4.131,4.131,0,0,0,.245-1.428,4.047,4.047,0,0,0-.245-1.419,3.725,3.725,0,0,0-.735-1.216,3.826,3.826,0,0,0-1.174-.845,4.021,4.021,0,0,0-3.108,0,3.734,3.734,0,0,0-1.174.845,3.455,3.455,0,0,0-.735,1.216,4.055,4.055,0,0,0-.228,1.419Z" transform="translate(-57.639 -2.098)" fill="#32345c"/>
      <path id="Path_12561" data-name="Path 12561" d="M200.619,15.72a3.227,3.227,0,0,0,1.107,2.213,3.48,3.48,0,0,0,2.289.794,3.81,3.81,0,0,0,1.994-.49,5.71,5.71,0,0,0,1.2-.946.363.363,0,0,1,.5,0L209.4,18.55a.38.38,0,0,1,.051.549,6.318,6.318,0,0,1-2.238,1.571,7.416,7.416,0,0,1-2.872.574,7.678,7.678,0,0,1-2.686-.473,6.344,6.344,0,0,1-2.188-1.343A6.276,6.276,0,0,1,198,17.334a6.639,6.639,0,0,1-.541-2.728A6.665,6.665,0,0,1,198,11.877a6.361,6.361,0,0,1,1.461-2.095,6.614,6.614,0,0,1,2.188-1.343A7.678,7.678,0,0,1,204.336,8a6.031,6.031,0,0,1,2.407.465,5.2,5.2,0,0,1,1.875,1.326,6.233,6.233,0,0,1,1.208,2.146,8.963,8.963,0,0,1,.439,2.94v.5a.372.372,0,0,1-.372.372Zm6.479-2.374a2.948,2.948,0,0,0-.845-2.2,3.261,3.261,0,0,0-2.34-.845,3.075,3.075,0,0,0-2.255.845,3.658,3.658,0,0,0-1.014,2.179Z" transform="translate(-61.868 -2.103)" fill="#32345c"/>
      <path id="Path_12562" data-name="Path 12562" d="M86.614,10.759h-1.09a2.475,2.475,0,0,0-2.34,2.475v7.138c0,.329,0,.329-.329.329H80.262c-.186,0-.262-.059-.262-.253V13.124a5.381,5.381,0,0,1,1.58-3.877A4.984,4.984,0,0,1,84.57,7.82a16.151,16.151,0,0,1,1.808-.051c.135,0,.245,0,.245.211v2.7C86.631,10.717,86.614,10.734,86.614,10.759Z" transform="translate(-43.627 -2.066)" fill="#32345c"/>
      <path id="Path_12563" data-name="Path 12563" d="M194.916,10.849h-1.09a2.475,2.475,0,0,0-2.34,2.475q0,3.56,0,7.138c0,.329,0,.329-.329.329h-2.585c-.186,0-.262-.059-.262-.253V13.214a5.381,5.381,0,0,1,1.58-3.877,5.068,5.068,0,0,1,2.99-1.428,16.15,16.15,0,0,1,1.808-.051c.135,0,.245,0,.245.211v2.7C194.932,10.807,194.916,10.824,194.916,10.849Z" transform="translate(-60.447 -2.08)" fill="#32345c"/>
      <path id="Path_12564" data-name="Path 12564" d="M110.675,16.754V13.08a5.364,5.364,0,0,1,4.392-5.17,6.318,6.318,0,0,1,4.671.735,4.554,4.554,0,0,1,.777.676,4.723,4.723,0,0,1,.617.617,5.271,5.271,0,0,1,.98,2.737c0,.473.051.955.051,1.428v6.445c0,.228-.051.313-.3.313h-2.686c-.22,0-.279-.076-.279-.287V13.206a2.112,2.112,0,0,0-1.157-2.019,2.762,2.762,0,0,0-3.548.946,2.8,2.8,0,0,0-.313,1.377V20.5c0,.355,0,.355-.346.355h-2.61c-.211,0-.27-.068-.27-.279V16.746Z" transform="translate(-48.387 -2.064)" fill="#32345c"/>
      <path id="Path_12565" data-name="Path 12565" d="M56.419,13.826a13.518,13.518,0,0,0-.051-1.436A5.4,5.4,0,0,0,55.4,9.636a5.23,5.23,0,0,0-.608-.617,5.364,5.364,0,0,0-.769-.684A6.175,6.175,0,0,0,49.408,7.6a5.415,5.415,0,0,0-2.737,1.444h0a5.794,5.794,0,0,0-.76-.684,6.2,6.2,0,0,0-4.621-.735,5.389,5.389,0,0,0-4.35,5.2c0,1.225,0,2.458,0,3.683h0v3.86c0,.2.059.27.262.27h2.585c.338,0,.338,0,.338-.355V13.26a2.88,2.88,0,0,1,.245-1.394,2.7,2.7,0,0,1,3.506-.946,2.12,2.12,0,0,1,1.174,2.061v3.556h0V20.4c0,.186.051.262.211.27h2.711c.245,0,.3-.076.3-.313V12.922a2.669,2.669,0,0,1,.3-1.031,2.7,2.7,0,0,1,3.506-.946,2.137,2.137,0,0,1,1.115,2.036q0,3.7,0,7.4c0,.22.059.3.279.287h2.652c.245,0,.3-.076.3-.313Z" transform="translate(-36.94 -2.016)" fill="#32345c"/>
      <path id="Path_12566" data-name="Path 12566" d="M89.16,16.694V13.02a5.372,5.372,0,0,1,4.4-5.17,6.327,6.327,0,0,1,4.671.735,5.305,5.305,0,0,1,.777.676,4.655,4.655,0,0,1,.608.617,5.271,5.271,0,0,1,.98,2.737c.042.473.051.955.051,1.428v6.445c0,.228-.051.313-.3.313H97.666c-.228,0-.287-.076-.287-.287V13.146a2.112,2.112,0,0,0-1.149-2.019,2.762,2.762,0,0,0-3.548.946,2.711,2.711,0,0,0-.279,1.377v6.986c0,.355,0,.355-.346.355h-2.61c-.211,0-.27-.068-.27-.279V16.686Z" transform="translate(-45.05 -2.054)" fill="#32345c"/>
    </g>
    <g id="Group_17676" data-name="Group 17676">
      <path id="Path_12567" data-name="Path 12567" d="M13.178.06A13,13,0,1,0,22.4,3.853,13,13,0,0,0,13.178.06ZM12.7,24.506a10.069,10.069,0,1,1,7.138-2.976A10.069,10.069,0,0,1,12.7,24.506Z" fill="#32345c"/>
      <circle id="Ellipse_5425" data-name="Ellipse 5425" cx="5.55" cy="5.55" r="5.55" transform="translate(9.132 8.296)" fill="#32345c"/>
    </g>
  </g>
</svg>