<svg class="" width="26" viewBox="0 0 26 26" fill="none" xmlns="http://www.w3.org/2000/svg"><path d="M17.0665 18.4767C16.6579 18.4775 16.2548 18.3821 15.8898 18.1984C15.5178 18.0134 15.2078 17.7238 14.9982 17.365C14.7754 16.9962 14.6599 16.5725 14.6648 16.1417V8.85836C14.6651 8.77655 14.6485 8.69557 14.6161 8.62046C14.5837 8.54534 14.5362 8.47768 14.4765 8.42169C14.389 8.33603 14.2784 8.27788 14.1582 8.25441C14.038 8.23094 13.9136 8.24318 13.8003 8.28963C13.6871 8.33608 13.5899 8.4147 13.5208 8.51577C13.4517 8.61684 13.4137 8.73594 13.4115 8.85836V16.1417C13.4175 16.4554 13.3556 16.7668 13.2302 17.0544C13.1048 17.342 12.9188 17.5992 12.6848 17.8084C12.2142 18.2462 11.5925 18.4851 10.9498 18.475C10.6405 18.4835 10.3327 18.429 10.0451 18.3148C9.75742 18.2007 9.49595 18.0294 9.27652 17.8112C9.05709 17.593 8.88426 17.3325 8.76851 17.0456C8.65277 16.7586 8.59652 16.4511 8.60318 16.1417V8.85836C8.60371 8.77666 8.58741 8.69572 8.5553 8.6206C8.52318 8.54547 8.47594 8.47776 8.41651 8.42169C8.35052 8.35782 8.27205 8.30827 8.18601 8.27614C8.09997 8.24402 8.00822 8.23002 7.91651 8.23503C7.82475 8.22941 7.73282 8.24312 7.64669 8.27527C7.56056 8.30743 7.48214 8.35731 7.41651 8.42169C7.35686 8.47768 7.30936 8.54534 7.27696 8.62046C7.24456 8.69557 7.22796 8.77655 7.22818 8.85836V18.4767H5.52151V8.85836C5.51466 8.5445 5.57609 8.23289 5.70156 7.94512C5.82703 7.65734 6.01354 7.40027 6.24818 7.19169C6.71841 6.75326 7.34035 6.51428 7.98318 6.52503C8.29237 6.51683 8.60001 6.5715 8.88745 6.68571C9.17489 6.79992 9.43616 6.9713 9.65541 7.18946C9.87466 7.40763 10.0473 7.66803 10.163 7.9549C10.2786 8.24177 10.3348 8.54913 10.3282 8.85836V16.1417C10.3276 16.2236 10.344 16.3047 10.3764 16.3798C10.4088 16.455 10.4565 16.5226 10.5165 16.5784C10.6537 16.6987 10.8299 16.7651 11.0123 16.7651C11.1948 16.7651 11.371 16.6987 11.5082 16.5784C11.5678 16.5224 11.6153 16.4547 11.6477 16.3796C11.6801 16.3045 11.6967 16.2235 11.6965 16.1417V8.85836C11.6881 8.54977 11.7429 8.24273 11.8576 7.95611C11.9722 7.66949 12.1443 7.40935 12.3632 7.19169C12.8164 6.76353 13.4163 6.525 14.0398 6.525C14.6634 6.525 15.2633 6.76353 15.7165 7.19169C15.9354 7.40935 16.1075 7.66949 16.2221 7.95611C16.3368 8.24273 16.3916 8.54977 16.3832 8.85836V16.1417C16.3826 16.2234 16.3989 16.3043 16.4311 16.3795C16.4632 16.4546 16.5104 16.5223 16.5698 16.5784C16.707 16.6987 16.8832 16.7651 17.0657 16.7651C17.2481 16.7651 17.4244 16.6987 17.5615 16.5784C17.6215 16.5226 17.6692 16.455 17.7016 16.3798C17.7341 16.3047 17.7505 16.2236 17.7499 16.1417V6.52336H19.4699V16.1417C19.4738 16.5724 19.3584 16.9958 19.1365 17.365C18.9268 17.7237 18.6169 18.0133 18.2449 18.1984C17.8792 18.3818 17.4756 18.4771 17.0665 18.4767Z" fill="#000"></path><path fill-rule="evenodd" clip-rule="evenodd" d="M12.5 23.3333C18.4831 23.3333 23.3333 18.4831 23.3333 12.5C23.3333 6.51692 18.4831 1.66667 12.5 1.66667C6.51692 1.66667 1.66667 6.51692 1.66667 12.5C1.66667 18.4831 6.51692 23.3333 12.5 23.3333ZM12.5 25C19.4036 25 25 19.4036 25 12.5C25 5.59644 19.4036 0 12.5 0C5.59644 0 0 5.59644 0 12.5C0 19.4036 5.59644 25 12.5 25Z" fill="#000"></path></svg>